<?xml version="1.0" standalone="no"?>
<!DOCTYPE svg PUBLIC "-//W3C//DTD SVG 20010904//EN"
 "http://www.w3.org/TR/2001/REC-SVG-20010904/DTD/svg10.dtd">
<svg version="1.0" xmlns="http://www.w3.org/2000/svg"
 width="512.000000pt" height="512.000000pt" viewBox="0 0 512.000000 512.000000"
 preserveAspectRatio="xMidYMid meet">
<metadata>
Created by potrace 1.14, written by Peter Selinger 2001-2017
</metadata>
<g transform="translate(0.000000,512.000000) scale(0.100000,-0.100000)"
fill="#000000" stroke="none">
<path d="M3148 4181 c-12 -20 -27 -45 -33 -56 -105 -186 -394 -621 -585 -880
-36 -49 -84 -115 -105 -145 -45 -62 -281 -365 -306 -393 -16 -17 -17 -13 -19
65 -1 46 -4 115 -6 153 -10 226 -2 1141 12 1186 2 9 -2 19 -10 22 -15 6 -534
0 -611 -7 -22 -1 -85 -6 -140 -11 -55 -4 -106 -8 -115 -10 -8 -1 -49 -6 -90
-10 -79 -7 -98 -9 -195 -21 -33 -4 -64 -7 -68 -6 -17 4 -19 -33 -7 -145 6 -65
13 -136 15 -158 4 -50 14 -157 20 -210 8 -70 14 -128 20 -200 3 -38 8 -86 10
-105 3 -19 7 -57 10 -85 3 -27 7 -68 10 -90 2 -22 7 -67 10 -100 3 -33 8 -71
10 -85 3 -14 7 -56 10 -95 3 -38 8 -81 10 -95 5 -31 16 -124 20 -165 4 -51 23
-204 40 -332 3 -21 7 -56 10 -78 5 -51 14 -120 20 -165 7 -48 12 -95 20 -165
4 -33 8 -71 11 -85 2 -14 6 -50 10 -80 3 -30 8 -62 9 -70 2 -9 6 -43 10 -75 4
-33 9 -68 11 -79 2 -10 6 -44 9 -75 4 -31 8 -63 10 -71 3 -8 7 -37 10 -65 3
-27 8 -61 10 -75 5 -28 9 -60 25 -175 18 -133 20 -149 23 -151 17 -18 507 -44
507 -28 0 5 -7 61 -14 124 -24 191 -30 260 -41 461 l-7 107 52 48 c112 105
236 211 350 300 84 66 226 164 237 164 4 0 35 -62 67 -138 60 -139 289 -611
369 -757 65 -120 101 -184 136 -243 17 -29 31 -57 31 -62 0 -6 3 -10 8 -10 4
0 18 -23 32 -51 l25 -51 75 7 c41 3 86 8 100 10 14 2 45 7 70 10 57 6 129 16
155 21 11 2 40 6 65 10 25 3 97 14 160 26 63 11 126 22 140 24 14 2 59 11 100
20 41 9 80 17 85 19 6 1 31 5 56 9 53 9 79 22 64 34 -10 7 -17 15 -160 202
-267 349 -709 950 -775 1055 -8 13 -73 110 -145 216 -71 106 -133 198 -137
204 -5 8 9 30 35 57 217 231 327 351 452 493 39 43 77 86 85 95 8 10 31 35 51
56 19 21 87 100 149 174 63 74 117 137 121 140 16 14 471 564 475 575 4 9 -13
15 -58 20 -35 4 -70 8 -79 10 -27 5 -133 18 -169 20 -19 2 -55 6 -80 9 -91 11
-157 17 -225 21 -141 8 -282 16 -357 19 l-77 4 -23 -37z"/>
</g>
</svg>
